<svg width="1280" height="800" viewBox="0 0 1280 800" fill="none" xmlns="http://www.w3.org/2000/svg">
<g clip-path="url(#clip0_53_11)">
<path d="M1280 0H0V800H1280V0Z" fill="url(#paint0_radial_53_11)"/>
<path d="M450.762 433.4H454.068L449.432 460H446.316L450.762 433.4ZM463.986 433.4H468.166L454.676 445.978L463.948 460H460.224L450.876 445.788L463.986 433.4ZM465.756 451.26C466.009 449.563 466.617 448.03 467.58 446.662C468.543 445.294 469.746 444.205 471.19 443.394C472.659 442.558 474.255 442.14 475.978 442.14C477.675 442.14 479.119 442.571 480.31 443.432C481.501 444.268 482.375 445.383 482.932 446.776C483.489 448.144 483.654 449.639 483.426 451.26C483.173 452.932 482.552 454.452 481.564 455.82C480.601 457.188 479.398 458.29 477.954 459.126C476.51 459.937 474.927 460.342 473.204 460.342C471.507 460.342 470.063 459.924 468.872 459.088C467.681 458.252 466.807 457.15 466.25 455.782C465.693 454.389 465.528 452.881 465.756 451.26ZM468.834 451.26C468.657 452.299 468.707 453.299 468.986 454.262C469.29 455.199 469.809 455.972 470.544 456.58C471.279 457.163 472.216 457.467 473.356 457.492C474.521 457.492 475.585 457.213 476.548 456.656C477.536 456.099 478.359 455.339 479.018 454.376C479.702 453.413 480.145 452.375 480.348 451.26C480.525 450.196 480.462 449.195 480.158 448.258C479.854 447.295 479.335 446.51 478.6 445.902C477.891 445.294 476.966 444.99 475.826 444.99C474.661 444.965 473.584 445.243 472.596 445.826C471.608 446.409 470.785 447.181 470.126 448.144C469.467 449.081 469.037 450.12 468.834 451.26ZM488.794 451.26C488.617 452.324 488.668 453.325 488.946 454.262C489.25 455.199 489.77 455.972 490.504 456.58C491.239 457.163 492.176 457.467 493.316 457.492C494.684 457.517 495.951 457.213 497.116 456.58C498.282 455.947 499.206 455.212 499.89 454.376L499.358 458.138C498.573 458.847 497.636 459.405 496.546 459.81C495.482 460.19 494.355 460.38 493.164 460.38C491.467 460.355 490.023 459.924 488.832 459.088C487.642 458.252 486.768 457.15 486.21 455.782C485.653 454.389 485.488 452.881 485.716 451.26C485.97 449.563 486.578 448.03 487.54 446.662C488.528 445.294 489.744 444.205 491.188 443.394C492.658 442.558 494.241 442.14 495.938 442.14C497.078 442.14 498.142 442.33 499.13 442.71C500.144 443.09 500.98 443.647 501.638 444.382L501.068 448.182C500.688 447.219 500.03 446.447 499.092 445.864C498.155 445.281 497.053 444.99 495.786 444.99C494.621 444.99 493.544 445.281 492.556 445.864C491.568 446.421 490.745 447.181 490.086 448.144C489.428 449.081 488.997 450.12 488.794 451.26ZM506.649 452.172L507.105 449.36H519.721L519.265 452.172H506.649ZM518.809 442.52H521.963L518.885 460H515.959L518.809 442.52ZM506.459 442.52H509.613L506.535 460H503.571L506.459 442.52ZM541.072 445.674L524.162 461.558L525.264 456.846L542.174 440.924L541.072 445.674ZM530.584 442.52L528 457.264L524.162 461.558L527.506 442.52H530.584ZM542.174 440.924L538.792 460H535.752L538.298 445.218L542.174 440.924ZM544.845 442.52H554.915L554.421 445.37H544.351L544.845 442.52ZM548.189 443.28H551.305L548.379 460H545.453L548.189 443.28ZM556.314 452.02L556.694 449.436H567.98C568.03 448.575 567.929 447.802 567.676 447.118C567.422 446.409 566.992 445.851 566.384 445.446C565.801 445.015 565.016 444.8 564.028 444.8C562.989 444.775 562.039 445.003 561.178 445.484C560.316 445.965 559.582 446.611 558.974 447.422C558.391 448.207 557.998 449.107 557.796 450.12L557.53 451.26C557.378 452.375 557.428 453.413 557.682 454.376C557.935 455.313 558.404 456.073 559.088 456.656C559.797 457.213 560.734 457.492 561.9 457.492C562.736 457.492 563.496 457.353 564.18 457.074C564.864 456.795 565.497 456.415 566.08 455.934C566.662 455.453 567.194 454.921 567.676 454.338L569.994 455.972C569.284 456.808 568.512 457.568 567.676 458.252C566.865 458.911 565.94 459.43 564.902 459.81C563.863 460.165 562.66 460.342 561.292 460.342C559.67 460.317 558.315 459.886 557.226 459.05C556.162 458.189 555.402 457.074 554.946 455.706C554.49 454.313 554.35 452.831 554.528 451.26C554.578 450.931 554.629 450.614 554.68 450.31C554.756 450.006 554.844 449.702 554.946 449.398C555.376 448.03 556.035 446.801 556.922 445.712C557.808 444.597 558.872 443.723 560.114 443.09C561.38 442.457 562.761 442.14 564.256 442.14C565.928 442.14 567.296 442.558 568.36 443.394C569.424 444.205 570.171 445.281 570.602 446.624C571.058 447.967 571.197 449.461 571.02 451.108C570.994 451.26 570.969 451.412 570.944 451.564C570.918 451.716 570.893 451.868 570.868 452.02H556.314ZM576.15 451.26C575.972 452.324 576.023 453.325 576.302 454.262C576.606 455.199 577.125 455.972 577.86 456.58C578.594 457.163 579.532 457.467 580.672 457.492C582.04 457.517 583.306 457.213 584.472 456.58C585.637 455.947 586.562 455.212 587.246 454.376L586.714 458.138C585.928 458.847 584.991 459.405 583.902 459.81C582.838 460.19 581.71 460.38 580.52 460.38C578.822 460.355 577.378 459.924 576.188 459.088C574.997 458.252 574.123 457.15 573.566 455.782C573.008 454.389 572.844 452.881 573.072 451.26C573.325 449.563 573.933 448.03 574.896 446.662C575.884 445.294 577.1 444.205 578.544 443.394C580.013 442.558 581.596 442.14 583.294 442.14C584.434 442.14 585.498 442.33 586.486 442.71C587.499 443.09 588.335 443.647 588.994 444.382L588.424 448.182C588.044 447.219 587.385 446.447 586.448 445.864C585.51 445.281 584.408 444.99 583.142 444.99C581.976 444.99 580.9 445.281 579.912 445.864C578.924 446.421 578.1 447.181 577.442 448.144C576.783 449.081 576.352 450.12 576.15 451.26ZM593.815 442.52H596.969L593.891 460H590.927L593.815 442.52ZM594.043 451.754L594.461 449.132H599.629C600.769 449.107 601.782 449.309 602.669 449.74C603.555 450.145 604.227 450.753 604.683 451.564C605.139 452.375 605.278 453.375 605.101 454.566C604.923 455.757 604.493 456.757 603.809 457.568C603.15 458.379 602.314 458.987 601.301 459.392C600.313 459.797 599.236 460 598.071 460H592.637L593.055 457.34H598.261C599.249 457.34 600.085 457.099 600.769 456.618C601.478 456.111 601.921 455.415 602.099 454.528C602.2 453.971 602.149 453.489 601.947 453.084C601.769 452.679 601.465 452.362 601.035 452.134C600.604 451.906 600.072 451.792 599.439 451.792L594.043 451.754ZM612.083 455.858L614.971 457.036L609.271 466.422L607.181 465.624L612.083 455.858ZM638.174 454.642L638.63 451.83H644.52L644.026 454.642H638.174ZM643.798 442.52H646.952L643.874 460H640.948L643.798 442.52ZM636.616 442.52L635.704 447.536C635.476 448.904 635.552 449.968 635.932 450.728C636.338 451.463 637.237 451.83 638.63 451.83L638.174 454.642C636.553 454.642 635.299 454.376 634.412 453.844C633.526 453.287 632.956 452.489 632.702 451.45C632.474 450.386 632.474 449.081 632.702 447.536L633.538 442.52H636.616ZM649.753 442.52H659.823L659.329 445.37H649.259L649.753 442.52ZM653.097 443.28H656.213L653.287 460H650.361L653.097 443.28ZM659.17 451.26C659.423 449.563 660.031 448.03 660.994 446.662C661.957 445.294 663.16 444.205 664.604 443.394C666.073 442.558 667.669 442.14 669.392 442.14C671.089 442.14 672.533 442.571 673.724 443.432C674.915 444.268 675.789 445.383 676.346 446.776C676.903 448.144 677.068 449.639 676.84 451.26C676.587 452.932 675.966 454.452 674.978 455.82C674.015 457.188 672.812 458.29 671.368 459.126C669.924 459.937 668.341 460.342 666.618 460.342C664.921 460.342 663.477 459.924 662.286 459.088C661.095 458.252 660.221 457.15 659.664 455.782C659.107 454.389 658.942 452.881 659.17 451.26ZM662.248 451.26C662.071 452.299 662.121 453.299 662.4 454.262C662.704 455.199 663.223 455.972 663.958 456.58C664.693 457.163 665.63 457.467 666.77 457.492C667.935 457.492 668.999 457.213 669.962 456.656C670.95 456.099 671.773 455.339 672.432 454.376C673.116 453.413 673.559 452.375 673.762 451.26C673.939 450.196 673.876 449.195 673.572 448.258C673.268 447.295 672.749 446.51 672.014 445.902C671.305 445.294 670.38 444.99 669.24 444.99C668.075 444.965 666.998 445.243 666.01 445.826C665.022 446.409 664.199 447.181 663.54 448.144C662.881 449.081 662.451 450.12 662.248 451.26ZM689.314 444.99L689.77 442.14C691.442 442.14 692.874 442.558 694.064 443.394C695.255 444.205 696.129 445.307 696.686 446.7C697.269 448.068 697.446 449.588 697.218 451.26C696.99 452.932 696.395 454.465 695.432 455.858C694.495 457.226 693.304 458.328 691.86 459.164C690.442 459.975 688.871 460.38 687.148 460.38C685.35 460.38 683.893 459.937 682.778 459.05C681.689 458.138 680.891 456.973 680.384 455.554C679.903 454.135 679.662 452.653 679.662 451.108L682.512 452.248C682.512 453.084 682.677 453.907 683.006 454.718C683.336 455.503 683.855 456.162 684.564 456.694C685.274 457.226 686.173 457.492 687.262 457.492C688.428 457.492 689.492 457.213 690.454 456.656C691.442 456.099 692.253 455.339 692.886 454.376C693.545 453.413 693.963 452.375 694.14 451.26C694.343 450.095 694.267 449.043 693.912 448.106C693.558 447.143 692.988 446.383 692.202 445.826C691.417 445.269 690.454 444.99 689.314 444.99ZM681.182 451.222C681.41 449.93 681.752 448.727 682.208 447.612C682.69 446.497 683.285 445.535 683.994 444.724C684.729 443.913 685.578 443.28 686.54 442.824C687.503 442.368 688.58 442.14 689.77 442.14L689.314 444.99C688.529 444.99 687.731 445.155 686.92 445.484C686.135 445.813 685.4 446.295 684.716 446.928C684.058 447.536 683.526 448.296 683.12 449.208C682.715 450.095 682.512 451.108 682.512 452.248L681.182 451.222ZM679.662 451.108C679.662 449.208 679.878 447.422 680.308 445.75C680.764 444.053 681.423 442.507 682.284 441.114C683.146 439.695 684.184 438.479 685.4 437.466C686.642 436.427 688.035 435.629 689.58 435.072C691.1 434.489 692.342 433.818 693.304 433.058C694.292 432.298 695.052 431.399 695.584 430.36L698.624 430.398C698.042 432.171 696.99 433.628 695.47 434.768C693.976 435.883 692.228 436.807 690.226 437.542C689.086 437.947 688.035 438.543 687.072 439.328C686.11 440.113 685.274 441.025 684.564 442.064C683.855 443.103 683.298 444.205 682.892 445.37C682.512 446.51 682.322 447.65 682.322 448.79V452.134L679.662 451.108ZM717.711 442.52H720.827L717.749 460H714.823L717.711 442.52ZM702.397 442.52H705.551L702.473 460H699.509L702.397 442.52ZM702.625 451.754L703.043 449.132H708.211C709.351 449.107 710.364 449.309 711.251 449.74C712.137 450.145 712.809 450.753 713.265 451.564C713.721 452.375 713.86 453.375 713.683 454.566C713.505 455.757 713.075 456.757 712.391 457.568C711.732 458.379 710.896 458.987 709.883 459.392C708.895 459.797 707.818 460 706.653 460H701.219L701.637 457.34H706.843C707.501 457.34 708.097 457.239 708.629 457.036C709.161 456.808 709.604 456.479 709.959 456.048C710.339 455.617 710.579 455.111 710.681 454.528C710.782 453.971 710.731 453.489 710.529 453.084C710.351 452.679 710.047 452.362 709.617 452.134C709.186 451.906 708.654 451.792 708.021 451.792L702.625 451.754ZM737.804 452.172L738.26 449.36H750.876L750.42 452.172H737.804ZM749.964 442.52H753.118L750.04 460H747.114L749.964 442.52ZM737.614 442.52H740.768L737.69 460H734.726L737.614 442.52ZM757.748 454.87C757.621 455.757 757.862 456.441 758.47 456.922C759.078 457.378 759.838 457.619 760.75 457.644C761.763 457.669 762.663 457.505 763.448 457.15C764.259 456.795 764.943 456.289 765.5 455.63C766.057 454.946 766.45 454.123 766.678 453.16L766.944 455.098C766.691 456.162 766.222 457.087 765.538 457.872C764.854 458.657 764.018 459.265 763.03 459.696C762.042 460.127 760.953 460.342 759.762 460.342C758.673 460.342 757.723 460.127 756.912 459.696C756.101 459.24 755.493 458.607 755.088 457.796C754.683 456.985 754.556 456.035 754.708 454.946C754.911 453.705 755.392 452.653 756.152 451.792C756.912 450.931 757.875 450.272 759.04 449.816C760.205 449.36 761.485 449.132 762.878 449.132C764.221 449.157 765.323 449.411 766.184 449.892C767.071 450.373 767.742 450.893 768.198 451.45L767.932 453.198C767.147 452.615 766.349 452.185 765.538 451.906C764.727 451.602 763.815 451.45 762.802 451.45C761.941 451.45 761.143 451.589 760.408 451.868C759.699 452.121 759.103 452.501 758.622 453.008C758.166 453.489 757.875 454.11 757.748 454.87ZM759.192 446.624L758.09 444.23C758.951 443.723 759.939 443.255 761.054 442.824C762.194 442.368 763.461 442.14 764.854 442.14C765.766 442.14 766.602 442.267 767.362 442.52C768.122 442.748 768.768 443.09 769.3 443.546C769.832 444.002 770.212 444.559 770.44 445.218C770.693 445.877 770.744 446.624 770.592 447.46L768.464 460H765.424L767.666 447.46C767.767 446.903 767.679 446.434 767.4 446.054C767.147 445.674 766.767 445.383 766.26 445.18C765.779 444.952 765.221 444.838 764.588 444.838C763.473 444.813 762.46 445.015 761.548 445.446C760.636 445.851 759.851 446.244 759.192 446.624ZM780.081 454.642L780.537 451.83H786.427L785.933 454.642H780.081ZM785.705 442.52H788.859L785.781 460H782.855L785.705 442.52ZM778.523 442.52L777.611 447.536C777.383 448.904 777.459 449.968 777.839 450.728C778.244 451.463 779.143 451.83 780.537 451.83L780.081 454.642C778.459 454.642 777.205 454.376 776.319 453.844C775.432 453.287 774.862 452.489 774.609 451.45C774.381 450.386 774.381 449.081 774.609 447.536L775.445 442.52H778.523ZM793.521 454.87C793.395 455.757 793.635 456.441 794.243 456.922C794.851 457.378 795.611 457.619 796.523 457.644C797.537 457.669 798.436 457.505 799.221 457.15C800.032 456.795 800.716 456.289 801.273 455.63C801.831 454.946 802.223 454.123 802.451 453.16L802.717 455.098C802.464 456.162 801.995 457.087 801.311 457.872C800.627 458.657 799.791 459.265 798.803 459.696C797.815 460.127 796.726 460.342 795.535 460.342C794.446 460.342 793.496 460.127 792.685 459.696C791.875 459.24 791.267 458.607 790.861 457.796C790.456 456.985 790.329 456.035 790.481 454.946C790.684 453.705 791.165 452.653 791.925 451.792C792.685 450.931 793.648 450.272 794.813 449.816C795.979 449.36 797.258 449.132 798.651 449.132C799.994 449.157 801.096 449.411 801.957 449.892C802.844 450.373 803.515 450.893 803.971 451.45L803.705 453.198C802.92 452.615 802.122 452.185 801.311 451.906C800.501 451.602 799.589 451.45 798.575 451.45C797.714 451.45 796.916 451.589 796.181 451.868C795.472 452.121 794.877 452.501 794.395 453.008C793.939 453.489 793.648 454.11 793.521 454.87ZM794.965 446.624L793.863 444.23C794.725 443.723 795.713 443.255 796.827 442.824C797.967 442.368 799.234 442.14 800.627 442.14C801.539 442.14 802.375 442.267 803.135 442.52C803.895 442.748 804.541 443.09 805.073 443.546C805.605 444.002 805.985 444.559 806.213 445.218C806.467 445.877 806.517 446.624 806.365 447.46L804.237 460H801.197L803.439 447.46C803.541 446.903 803.452 446.434 803.173 446.054C802.92 445.674 802.54 445.383 802.033 445.18C801.552 444.952 800.995 444.838 800.361 444.838C799.247 444.813 798.233 445.015 797.321 445.446C796.409 445.851 795.624 446.244 794.965 446.624ZM809.546 442.52H819.616L819.122 445.37H809.052L809.546 442.52ZM812.89 443.28H816.006L813.08 460H810.154L812.89 443.28ZM822.446 442.52H825.6L822.522 460H819.558L822.446 442.52ZM822.674 451.754L823.092 449.132H828.26C829.4 449.107 830.413 449.309 831.3 449.74C832.186 450.145 832.858 450.753 833.314 451.564C833.77 452.375 833.909 453.375 833.732 454.566C833.554 455.757 833.124 456.757 832.44 457.568C831.781 458.379 830.945 458.987 829.932 459.392C828.944 459.797 827.867 460 826.702 460H821.268L821.686 457.34H826.892C827.88 457.34 828.716 457.099 829.4 456.618C830.109 456.111 830.552 455.415 830.73 454.528C830.831 453.971 830.78 453.489 830.578 453.084C830.4 452.679 830.096 452.362 829.666 452.134C829.235 451.906 828.703 451.792 828.07 451.792L822.674 451.754Z" fill="white"/>
<path d="M452 521H248C232.536 521 220 533.536 220 549V603C220 618.464 232.536 631 248 631H452C467.464 631 480 618.464 480 603V549C480 533.536 467.464 521 452 521Z" fill="white" fill-opacity="0.97" stroke="white" stroke-opacity="0.35" stroke-width="2"/>
<path d="M291.523 603V581.525H298.481C301.118 581.525 302.837 581.633 303.638 581.848C304.868 582.17 305.898 582.873 306.729 583.957C307.559 585.031 307.974 586.423 307.974 588.132C307.974 589.45 307.734 590.559 307.256 591.457C306.777 592.355 306.167 593.063 305.425 593.581C304.692 594.089 303.945 594.426 303.184 594.592C302.148 594.797 300.649 594.899 298.687 594.899H295.859V603H291.523ZM295.859 585.158V591.252H298.232C299.941 591.252 301.084 591.14 301.66 590.915C302.236 590.69 302.686 590.339 303.008 589.86C303.34 589.382 303.506 588.825 303.506 588.19C303.506 587.409 303.276 586.765 302.817 586.257C302.358 585.749 301.777 585.432 301.074 585.305C300.557 585.207 299.517 585.158 297.954 585.158H295.859ZM309.556 587.443H313.936L317.656 598.488L321.289 587.443H325.552L320.059 602.414L319.077 605.124C318.716 606.032 318.369 606.726 318.037 607.204C317.715 607.683 317.339 608.068 316.909 608.361C316.489 608.664 315.967 608.898 315.342 609.064C314.727 609.23 314.028 609.313 313.247 609.313C312.456 609.313 311.68 609.23 310.918 609.064L310.552 605.842C311.196 605.969 311.777 606.032 312.295 606.032C313.252 606.032 313.96 605.749 314.419 605.183C314.878 604.626 315.229 603.913 315.474 603.044L309.556 587.443ZM341.035 592.043L336.978 592.775C336.841 591.965 336.528 591.354 336.04 590.944C335.562 590.534 334.937 590.329 334.165 590.329C333.14 590.329 332.319 590.686 331.704 591.398C331.099 592.102 330.796 593.283 330.796 594.943C330.796 596.789 331.104 598.093 331.719 598.854C332.344 599.616 333.179 599.997 334.224 599.997C335.005 599.997 335.645 599.777 336.143 599.338C336.641 598.889 336.992 598.122 337.197 597.038L341.24 597.727C340.82 599.582 340.015 600.983 338.823 601.931C337.632 602.878 336.035 603.352 334.033 603.352C331.758 603.352 329.941 602.634 328.584 601.198C327.236 599.763 326.562 597.775 326.562 595.236C326.562 592.668 327.241 590.671 328.599 589.245C329.956 587.81 331.792 587.092 334.106 587.092C336.001 587.092 337.505 587.502 338.618 588.322C339.741 589.133 340.547 590.373 341.035 592.043ZM357.734 592.043L353.677 592.775C353.54 591.965 353.228 591.354 352.739 590.944C352.261 590.534 351.636 590.329 350.864 590.329C349.839 590.329 349.019 590.686 348.403 591.398C347.798 592.102 347.495 593.283 347.495 594.943C347.495 596.789 347.803 598.093 348.418 598.854C349.043 599.616 349.878 599.997 350.923 599.997C351.704 599.997 352.344 599.777 352.842 599.338C353.34 598.889 353.691 598.122 353.896 597.038L357.939 597.727C357.52 599.582 356.714 600.983 355.522 601.931C354.331 602.878 352.734 603.352 350.732 603.352C348.457 603.352 346.641 602.634 345.283 601.198C343.936 599.763 343.262 597.775 343.262 595.236C343.262 592.668 343.94 590.671 345.298 589.245C346.655 587.81 348.491 587.092 350.806 587.092C352.7 587.092 354.204 587.502 355.317 588.322C356.44 589.133 357.246 590.373 357.734 592.043ZM360.708 587.443H364.81V593.801C365.493 593.723 365.977 593.513 366.26 593.171C366.543 592.829 366.885 592.082 367.285 590.93C367.812 589.396 368.389 588.415 369.014 587.985C369.639 587.556 370.459 587.341 371.475 587.341C371.787 587.341 372.329 587.365 373.101 587.414L373.115 590.139C372.031 590.139 371.338 590.241 371.035 590.446C370.732 590.661 370.405 591.301 370.054 592.365C369.575 593.801 368.887 594.685 367.988 595.017C369.287 595.378 370.386 596.506 371.284 598.4C371.333 598.498 371.387 598.601 371.445 598.708L373.745 603H369.321L367.271 598.503C366.851 597.595 366.484 597.014 366.172 596.76C365.869 596.496 365.415 596.364 364.81 596.364V603H360.708V587.443ZM375.796 587.443H379.751V597.214L386.079 587.443H390.122V603H386.167V593.054L379.751 603H375.796V587.443ZM394.253 587.443H398.208V597.214L404.536 587.443H408.579V603H404.624V593.054L398.208 603H394.253V587.443ZM404.111 581.13H406.118C406.001 582.458 405.532 583.503 404.712 584.265C403.901 585.017 402.847 585.393 401.548 585.393C400.249 585.393 399.189 585.017 398.369 584.265C397.559 583.503 397.095 582.458 396.978 581.13H398.984C399.053 581.823 399.297 582.351 399.717 582.712C400.137 583.063 400.747 583.239 401.548 583.239C402.349 583.239 402.959 583.063 403.379 582.712C403.799 582.351 404.043 581.823 404.111 581.13Z" fill="#1E293B"/>
<path d="M742 521H538C522.536 521 510 533.536 510 549V603C510 618.464 522.536 631 538 631H742C757.464 631 770 618.464 770 603V549C770 533.536 757.464 521 742 521Z" fill="white" fill-opacity="0.97" stroke="white" stroke-opacity="0.35" stroke-width="2"/>
<path d="M596.304 607.688H592.7V603H591.265L588.701 597.448C588.662 597.37 588.579 597.219 588.452 596.994C588.384 596.877 588.203 596.54 587.91 595.983C587.422 595.065 587.051 594.479 586.797 594.226C586.367 593.815 585.737 593.605 584.907 593.596V603H580.571V581.525H584.907V590.666C585.991 590.559 586.792 590.114 587.31 589.333C587.437 589.118 587.817 588.2 588.452 586.579C589.272 584.46 590.093 583.083 590.913 582.448C591.821 581.745 593.354 581.394 595.513 581.394C595.61 581.394 595.82 581.389 596.143 581.379V584.587L595.527 584.572C594.082 584.533 593.101 584.978 592.583 585.905C592.329 586.354 591.953 587.277 591.455 588.674C591.143 589.553 590.845 590.188 590.562 590.578C590.21 591.086 589.678 591.54 588.965 591.94C589.941 592.214 590.742 592.766 591.367 593.596C592.07 594.523 592.759 595.695 593.433 597.111L594.517 599.396H596.304V607.688ZM601.855 592.189L598.12 591.516C598.54 590.012 599.263 588.898 600.288 588.176C601.313 587.453 602.837 587.092 604.858 587.092C606.694 587.092 608.062 587.312 608.96 587.751C609.858 588.181 610.488 588.732 610.85 589.406C611.221 590.07 611.406 591.296 611.406 593.083L611.362 597.888C611.362 599.255 611.426 600.266 611.553 600.92C611.689 601.564 611.938 602.258 612.3 603H608.228C608.12 602.727 607.988 602.321 607.832 601.784C607.764 601.54 607.715 601.379 607.686 601.301C606.982 601.984 606.23 602.497 605.43 602.839C604.629 603.181 603.774 603.352 602.866 603.352C601.265 603.352 600 602.917 599.072 602.048C598.154 601.179 597.695 600.08 597.695 598.752C597.695 597.873 597.905 597.092 598.325 596.408C598.745 595.715 599.331 595.188 600.083 594.826C600.845 594.455 601.938 594.133 603.364 593.859C605.288 593.498 606.621 593.161 607.363 592.849V592.438C607.363 591.647 607.168 591.086 606.777 590.754C606.387 590.412 605.649 590.241 604.565 590.241C603.833 590.241 603.262 590.388 602.852 590.681C602.441 590.964 602.109 591.467 601.855 592.189ZM607.363 595.529C606.836 595.705 606.001 595.915 604.858 596.159C603.716 596.403 602.969 596.643 602.617 596.877C602.08 597.258 601.812 597.741 601.812 598.327C601.812 598.903 602.026 599.401 602.456 599.821C602.886 600.241 603.433 600.451 604.097 600.451C604.839 600.451 605.547 600.207 606.221 599.719C606.719 599.348 607.046 598.894 607.202 598.356C607.31 598.005 607.363 597.336 607.363 596.35V595.529ZM620.049 596.613V593.933C620.762 593.933 621.279 593.889 621.602 593.801C621.924 593.703 622.227 593.479 622.51 593.127C622.803 592.766 622.949 592.355 622.949 591.896C622.949 591.408 622.769 590.959 622.407 590.549C622.056 590.129 621.523 589.919 620.811 589.919C620.264 589.919 619.775 590.036 619.346 590.271C618.916 590.505 618.525 591.062 618.174 591.94L614.688 591.193C615.039 589.826 615.791 588.801 616.943 588.117C618.096 587.434 619.409 587.092 620.884 587.092C622.759 587.092 624.209 587.521 625.234 588.381C626.27 589.24 626.787 590.319 626.787 591.618C626.787 592.429 626.562 593.103 626.113 593.64C625.674 594.167 624.976 594.66 624.019 595.119C625.171 595.432 626.03 595.905 626.597 596.54C627.173 597.175 627.461 597.966 627.461 598.913C627.461 600.124 626.895 601.169 625.762 602.048C624.629 602.917 622.998 603.352 620.869 603.352C617.158 603.352 614.888 601.901 614.058 599.001L617.822 598.312C618.428 599.836 619.429 600.598 620.825 600.598C621.597 600.598 622.212 600.397 622.671 599.997C623.14 599.587 623.374 599.108 623.374 598.562C623.374 597.956 623.13 597.482 622.642 597.141C622.163 596.789 621.533 596.613 620.752 596.613H620.049ZM633.467 592.189L629.731 591.516C630.151 590.012 630.874 588.898 631.899 588.176C632.925 587.453 634.448 587.092 636.47 587.092C638.306 587.092 639.673 587.312 640.571 587.751C641.47 588.181 642.1 588.732 642.461 589.406C642.832 590.07 643.018 591.296 643.018 593.083L642.974 597.888C642.974 599.255 643.037 600.266 643.164 600.92C643.301 601.564 643.55 602.258 643.911 603H639.839C639.731 602.727 639.6 602.321 639.443 601.784C639.375 601.54 639.326 601.379 639.297 601.301C638.594 601.984 637.842 602.497 637.041 602.839C636.24 603.181 635.386 603.352 634.478 603.352C632.876 603.352 631.611 602.917 630.684 602.048C629.766 601.179 629.307 600.08 629.307 598.752C629.307 597.873 629.517 597.092 629.937 596.408C630.356 595.715 630.942 595.188 631.694 594.826C632.456 594.455 633.55 594.133 634.976 593.859C636.899 593.498 638.232 593.161 638.975 592.849V592.438C638.975 591.647 638.779 591.086 638.389 590.754C637.998 590.412 637.261 590.241 636.177 590.241C635.444 590.241 634.873 590.388 634.463 590.681C634.053 590.964 633.721 591.467 633.467 592.189ZM638.975 595.529C638.447 595.705 637.612 595.915 636.47 596.159C635.327 596.403 634.58 596.643 634.229 596.877C633.691 597.258 633.423 597.741 633.423 598.327C633.423 598.903 633.638 599.401 634.067 599.821C634.497 600.241 635.044 600.451 635.708 600.451C636.45 600.451 637.158 600.207 637.832 599.719C638.33 599.348 638.657 598.894 638.813 598.356C638.921 598.005 638.975 597.336 638.975 596.35V595.529ZM659.951 607.102H656.626V603H655.542L653.491 598.503C653.13 597.712 652.837 597.194 652.612 596.95C652.241 596.56 651.714 596.364 651.03 596.364V603H646.929V587.443H651.03V593.801C651.782 593.713 652.344 593.391 652.715 592.834C652.891 592.58 653.154 591.945 653.506 590.93C653.955 589.641 654.429 588.752 654.927 588.264C655.552 587.648 656.475 587.341 657.695 587.341C658.008 587.341 658.55 587.365 659.321 587.414V590.139C658.247 590.139 657.554 590.251 657.241 590.476C656.938 590.7 656.616 591.33 656.274 592.365C655.796 593.801 655.107 594.685 654.209 595.017C655.508 595.378 656.606 596.506 657.505 598.4C657.544 598.488 657.598 598.591 657.666 598.708L658.208 599.675H659.951V607.102ZM662.017 587.443H665.796V599.675H670.571V587.443H674.365V599.675H679.126V587.443H682.92V603H662.017V587.443ZM690.215 592.189L686.479 591.516C686.899 590.012 687.622 588.898 688.647 588.176C689.673 587.453 691.196 587.092 693.218 587.092C695.054 587.092 696.421 587.312 697.319 587.751C698.218 588.181 698.848 588.732 699.209 589.406C699.58 590.07 699.766 591.296 699.766 593.083L699.722 597.888C699.722 599.255 699.785 600.266 699.912 600.92C700.049 601.564 700.298 602.258 700.659 603H696.587C696.479 602.727 696.348 602.321 696.191 601.784C696.123 601.54 696.074 601.379 696.045 601.301C695.342 601.984 694.59 602.497 693.789 602.839C692.988 603.181 692.134 603.352 691.226 603.352C689.624 603.352 688.359 602.917 687.432 602.048C686.514 601.179 686.055 600.08 686.055 598.752C686.055 597.873 686.265 597.092 686.685 596.408C687.104 595.715 687.69 595.188 688.442 594.826C689.204 594.455 690.298 594.133 691.724 593.859C693.647 593.498 694.98 593.161 695.723 592.849V592.438C695.723 591.647 695.527 591.086 695.137 590.754C694.746 590.412 694.009 590.241 692.925 590.241C692.192 590.241 691.621 590.388 691.211 590.681C690.801 590.964 690.469 591.467 690.215 592.189ZM695.723 595.529C695.195 595.705 694.36 595.915 693.218 596.159C692.075 596.403 691.328 596.643 690.977 596.877C690.439 597.258 690.171 597.741 690.171 598.327C690.171 598.903 690.386 599.401 690.815 599.821C691.245 600.241 691.792 600.451 692.456 600.451C693.198 600.451 693.906 600.207 694.58 599.719C695.078 599.348 695.405 598.894 695.562 598.356C695.669 598.005 695.723 597.336 695.723 596.35V595.529Z" fill="#1E293B"/>
<path d="M1032 521H828C812.536 521 800 533.536 800 549V603C800 618.464 812.536 631 828 631H1032C1047.46 631 1060 618.464 1060 603V549C1060 533.536 1047.46 521 1032 521Z" fill="white" fill-opacity="0.97" stroke="white" stroke-opacity="0.35" stroke-width="2"/>
<path d="M877.969 603V581.525H893.892V585.158H882.305V589.919H893.086V593.537H882.305V599.382H894.302V603H877.969ZM912.1 603H907.983V595.061C907.983 593.381 907.896 592.297 907.72 591.809C907.544 591.311 907.256 590.925 906.855 590.651C906.465 590.378 905.991 590.241 905.435 590.241C904.722 590.241 904.082 590.437 903.516 590.827C902.949 591.218 902.559 591.735 902.344 592.38C902.139 593.024 902.036 594.216 902.036 595.954V603H897.92V587.443H901.743V589.729C903.101 587.971 904.81 587.092 906.87 587.092C907.778 587.092 908.608 587.258 909.36 587.59C910.112 587.912 910.679 588.327 911.06 588.835C911.45 589.343 911.719 589.919 911.865 590.563C912.021 591.208 912.1 592.131 912.1 593.332V603ZM915.908 604.025L920.61 604.597C920.688 605.144 920.869 605.52 921.152 605.725C921.543 606.018 922.158 606.164 922.998 606.164C924.072 606.164 924.878 606.003 925.415 605.681C925.776 605.466 926.05 605.119 926.235 604.641C926.362 604.299 926.426 603.669 926.426 602.751V600.48C925.195 602.16 923.643 603 921.768 603C919.678 603 918.022 602.116 916.802 600.349C915.845 598.952 915.366 597.214 915.366 595.134C915.366 592.526 915.991 590.534 917.241 589.157C918.501 587.78 920.063 587.092 921.929 587.092C923.853 587.092 925.439 587.937 926.689 589.626V587.443H930.542V601.403C930.542 603.239 930.391 604.611 930.088 605.52C929.785 606.428 929.36 607.141 928.813 607.658C928.267 608.176 927.534 608.581 926.616 608.874C925.708 609.167 924.556 609.313 923.159 609.313C920.522 609.313 918.652 608.859 917.549 607.951C916.445 607.053 915.894 605.91 915.894 604.523C915.894 604.387 915.898 604.221 915.908 604.025ZM919.585 594.899C919.585 596.55 919.902 597.761 920.537 598.532C921.182 599.294 921.973 599.675 922.91 599.675C923.916 599.675 924.766 599.284 925.459 598.503C926.152 597.712 926.499 596.545 926.499 595.002C926.499 593.391 926.167 592.194 925.503 591.413C924.839 590.632 923.999 590.241 922.983 590.241C921.997 590.241 921.182 590.627 920.537 591.398C919.902 592.16 919.585 593.327 919.585 594.899ZM934.629 603V581.525H938.745V603H934.629ZM942.979 585.334V581.525H947.095V585.334H942.979ZM942.979 603V587.443H947.095V603H942.979ZM949.878 598.562L954.009 597.932C954.185 598.732 954.541 599.343 955.078 599.763C955.615 600.173 956.367 600.378 957.334 600.378C958.398 600.378 959.199 600.183 959.736 599.792C960.098 599.519 960.278 599.152 960.278 598.693C960.278 598.381 960.181 598.122 959.985 597.917C959.78 597.722 959.321 597.541 958.608 597.375C955.288 596.643 953.184 595.974 952.295 595.368C951.064 594.528 950.449 593.361 950.449 591.867C950.449 590.52 950.981 589.387 952.046 588.469C953.11 587.551 954.761 587.092 956.997 587.092C959.126 587.092 960.708 587.438 961.743 588.132C962.778 588.825 963.491 589.851 963.882 591.208L960 591.926C959.834 591.32 959.517 590.856 959.048 590.534C958.589 590.212 957.93 590.051 957.07 590.051C955.986 590.051 955.21 590.202 954.741 590.505C954.429 590.72 954.272 590.998 954.272 591.34C954.272 591.633 954.409 591.882 954.683 592.087C955.054 592.36 956.333 592.746 958.521 593.244C960.718 593.742 962.251 594.353 963.12 595.075C963.979 595.808 964.409 596.828 964.409 598.137C964.409 599.562 963.813 600.788 962.622 601.813C961.431 602.839 959.668 603.352 957.334 603.352C955.215 603.352 953.535 602.922 952.295 602.062C951.064 601.203 950.259 600.036 949.878 598.562ZM972.129 581.525V589.421C973.457 587.868 975.044 587.092 976.89 587.092C977.837 587.092 978.691 587.268 979.453 587.619C980.215 587.971 980.786 588.42 981.167 588.967C981.558 589.514 981.821 590.119 981.958 590.783C982.104 591.447 982.178 592.478 982.178 593.874V603H978.062V594.782C978.062 593.151 977.983 592.116 977.827 591.677C977.671 591.237 977.393 590.891 976.992 590.637C976.602 590.373 976.108 590.241 975.513 590.241C974.829 590.241 974.219 590.407 973.682 590.739C973.145 591.071 972.749 591.574 972.495 592.248C972.251 592.912 972.129 593.898 972.129 595.207V603H968.013V581.525H972.129Z" fill="#1E293B"/>
<path d="M505.572 192.733C505.572 194.321 505.926 195.716 506.634 196.918C507.364 198.12 508.308 199.053 509.467 199.719C510.647 200.362 511.924 200.684 513.298 200.684C514.371 200.684 515.337 200.545 516.195 200.266C517.054 199.987 517.826 199.611 518.513 199.139C519.221 198.645 519.833 198.098 520.348 197.497V202.004C519.404 202.777 518.384 203.367 517.29 203.775C516.195 204.182 514.822 204.386 513.169 204.386C511.517 204.386 509.971 204.107 508.533 203.549C507.117 202.991 505.883 202.187 504.831 201.135C503.78 200.083 502.954 198.849 502.353 197.433C501.773 195.995 501.484 194.428 501.484 192.733C501.484 191.037 501.773 189.482 502.353 188.065C502.954 186.627 503.78 185.382 504.831 184.331C505.883 183.279 507.117 182.474 508.533 181.916C509.971 181.358 511.517 181.079 513.169 181.079C514.822 181.079 516.195 181.283 517.29 181.691C518.384 182.099 519.404 182.689 520.348 183.462V187.969C519.833 187.368 519.221 186.831 518.513 186.359C517.826 185.865 517.054 185.479 516.195 185.2C515.337 184.921 514.371 184.782 513.298 184.782C511.924 184.782 510.647 185.114 509.467 185.779C508.308 186.423 507.364 187.346 506.634 188.548C505.926 189.728 505.572 191.123 505.572 192.733ZM537.841 189.192L528.184 211.082H524.481L528.344 202.262L522.389 189.192H526.381L531.113 200.91L529.471 200.813L534.107 189.192H537.841ZM541.769 196.596C541.769 197.54 541.973 198.366 542.381 199.075C542.789 199.761 543.336 200.309 544.023 200.716C544.731 201.124 545.514 201.328 546.373 201.328C547.081 201.328 547.757 201.221 548.401 201.006C549.045 200.792 549.613 200.491 550.107 200.105C550.601 199.719 550.966 199.289 551.202 198.817V202.648C550.687 203.163 549.989 203.571 549.109 203.871C548.229 204.172 547.263 204.322 546.212 204.322C544.688 204.322 543.315 204 542.091 203.356C540.89 202.691 539.935 201.779 539.226 200.62C538.54 199.44 538.196 198.098 538.196 196.596C538.196 195.072 538.54 193.731 539.226 192.572C539.935 191.413 540.89 190.512 542.091 189.868C543.315 189.203 544.688 188.87 546.212 188.87C547.263 188.87 548.229 189.02 549.109 189.321C549.989 189.621 550.687 190.029 551.202 190.544V194.375C550.966 193.881 550.59 193.452 550.075 193.087C549.581 192.701 549.013 192.4 548.369 192.186C547.725 191.971 547.06 191.864 546.373 191.864C545.514 191.864 544.731 192.068 544.023 192.475C543.336 192.883 542.789 193.441 542.381 194.149C541.973 194.858 541.769 195.673 541.769 196.596ZM569.402 189.192H572.911V204H569.402V189.192ZM555.044 189.192H558.521V204H555.044V189.192ZM557.459 197.175V194.568H562.062C563.586 194.568 564.863 194.943 565.893 195.695C566.945 196.424 567.47 197.583 567.47 199.171C567.47 200.223 567.234 201.113 566.762 201.843C566.29 202.551 565.646 203.088 564.831 203.453C564.015 203.818 563.092 204 562.062 204H557.459V201.135H561.74C562.255 201.135 562.685 201.06 563.028 200.91C563.371 200.759 563.64 200.534 563.833 200.234C564.026 199.933 564.123 199.579 564.123 199.171C564.123 198.527 563.919 198.034 563.511 197.69C563.103 197.347 562.513 197.175 561.74 197.175H557.459ZM578.846 197.626V194.761H590.178V197.626H578.846ZM588.311 189.192H591.723V204H588.311V189.192ZM577.333 189.192H580.746V204H577.333V189.192ZM604.727 194.182L600.703 203.034L597.098 202.648L604.727 188.065L612.357 202.648L608.751 203.034L604.727 194.182ZM610.844 204H598.772V206.897H595.231V201.038H614.224V206.897H610.844V204ZM620.077 199.622C620.077 200.073 620.195 200.448 620.431 200.749C620.688 201.049 621.021 201.285 621.429 201.457C621.836 201.607 622.298 201.682 622.813 201.682C623.564 201.682 624.24 201.564 624.841 201.328C625.442 201.092 625.914 200.716 626.257 200.201C626.601 199.686 626.772 199 626.772 198.141L627.287 199.815C627.287 200.759 627.041 201.575 626.547 202.262C626.053 202.927 625.388 203.442 624.551 203.807C623.714 204.15 622.781 204.322 621.751 204.322C620.785 204.322 619.905 204.15 619.111 203.807C618.338 203.463 617.716 202.959 617.244 202.294C616.793 201.607 616.568 200.759 616.568 199.751C616.568 198.742 616.825 197.873 617.34 197.143C617.855 196.413 618.585 195.855 619.529 195.469C620.495 195.083 621.622 194.89 622.909 194.89C623.768 194.89 624.53 194.997 625.195 195.212C625.882 195.426 626.451 195.673 626.901 195.952C627.352 196.231 627.663 196.478 627.835 196.692V198.527C627.169 198.034 626.493 197.68 625.807 197.465C625.12 197.229 624.326 197.111 623.424 197.111C622.695 197.111 622.072 197.218 621.557 197.433C621.064 197.626 620.688 197.916 620.431 198.302C620.195 198.667 620.077 199.107 620.077 199.622ZM619.304 193.087L617.92 190.608C618.585 190.2 619.433 189.803 620.463 189.417C621.493 189.031 622.673 188.838 624.004 188.838C625.227 188.838 626.3 189.02 627.223 189.385C628.146 189.75 628.865 190.276 629.38 190.962C629.916 191.628 630.185 192.454 630.185 193.441V204H626.772V193.827C626.772 193.141 626.483 192.615 625.903 192.25C625.345 191.864 624.659 191.671 623.843 191.671C623.135 191.671 622.48 191.756 621.879 191.928C621.278 192.1 620.753 192.304 620.302 192.54C619.873 192.754 619.54 192.937 619.304 193.087ZM637.646 211.082H634.138V189.192H637.646V211.082ZM649.911 196.596C649.911 198.227 649.579 199.633 648.914 200.813C648.248 201.972 647.368 202.863 646.274 203.485C645.179 204.086 643.988 204.386 642.701 204.386C641.434 204.386 640.329 204.075 639.385 203.453C638.462 202.809 637.743 201.908 637.228 200.749C636.734 199.568 636.488 198.184 636.488 196.596C636.488 194.986 636.734 193.602 637.228 192.443C637.743 191.284 638.462 190.394 639.385 189.771C640.329 189.127 641.434 188.806 642.701 188.806C643.988 188.806 645.179 189.117 646.274 189.739C647.368 190.34 648.248 191.22 648.914 192.379C649.579 193.538 649.911 194.943 649.911 196.596ZM646.306 196.596C646.306 195.609 646.102 194.772 645.694 194.085C645.287 193.377 644.739 192.851 644.053 192.508C643.387 192.143 642.647 191.96 641.831 191.96C641.166 191.96 640.511 192.143 639.868 192.508C639.224 192.851 638.687 193.366 638.258 194.053C637.85 194.74 637.646 195.587 637.646 196.596C637.646 197.605 637.85 198.452 638.258 199.139C638.687 199.826 639.224 200.352 639.868 200.716C640.511 201.06 641.166 201.232 641.831 201.232C642.647 201.232 643.387 201.06 644.053 200.716C644.739 200.352 645.287 199.826 645.694 199.139C646.102 198.431 646.306 197.583 646.306 196.596ZM663.357 190.286C663.357 189.664 663.572 189.138 664.001 188.709C664.452 188.258 664.988 188.033 665.61 188.033C666.276 188.033 666.823 188.258 667.252 188.709C667.681 189.138 667.896 189.664 667.896 190.286C667.896 190.887 667.681 191.413 667.252 191.864C666.823 192.314 666.276 192.54 665.61 192.54C664.988 192.54 664.452 192.314 664.001 191.864C663.572 191.413 663.357 190.887 663.357 190.286ZM685.267 192.733C685.267 194.321 685.621 195.716 686.329 196.918C687.059 198.12 688.003 199.053 689.162 199.719C690.343 200.362 691.62 200.684 692.993 200.684C694.066 200.684 695.032 200.545 695.89 200.266C696.749 199.987 697.521 199.611 698.208 199.139C698.916 198.645 699.528 198.098 700.043 197.497V202.004C699.099 202.777 698.079 203.367 696.985 203.775C695.89 204.182 694.517 204.386 692.864 204.386C691.212 204.386 689.667 204.107 688.229 203.549C686.812 202.991 685.578 202.187 684.527 201.135C683.475 200.083 682.649 198.849 682.048 197.433C681.468 195.995 681.179 194.428 681.179 192.733C681.179 191.037 681.468 189.482 682.048 188.065C682.649 186.627 683.475 185.382 684.527 184.331C685.578 183.279 686.812 182.474 688.229 181.916C689.667 181.358 691.212 181.079 692.864 181.079C694.517 181.079 695.89 181.283 696.985 181.691C698.079 182.099 699.099 182.689 700.043 183.462V187.969C699.528 187.368 698.916 186.831 698.208 186.359C697.521 185.865 696.749 185.479 695.89 185.2C695.032 184.921 694.066 184.782 692.993 184.782C691.62 184.782 690.343 185.114 689.162 185.779C688.003 186.423 687.059 187.346 686.329 188.548C685.621 189.728 685.267 191.123 685.267 192.733ZM705.947 197.626V194.761H717.279V197.626H705.947ZM715.412 189.192H718.824V204H715.412V189.192ZM704.434 189.192H707.847V204H704.434V189.192ZM725.132 195.244H734.725L733.019 197.948H725.132V195.244ZM732.086 196.596C732.086 195.609 731.882 194.74 731.474 193.988C731.088 193.237 730.54 192.658 729.832 192.25C729.145 191.842 728.362 191.638 727.482 191.638C726.795 191.638 726.13 191.746 725.486 191.96C724.842 192.175 724.274 192.465 723.78 192.829C723.287 193.194 722.911 193.624 722.653 194.117V190.544C723.169 190.029 723.866 189.621 724.746 189.321C725.626 189.02 726.592 188.87 727.643 188.87C729.188 188.87 730.562 189.203 731.764 189.868C732.966 190.512 733.91 191.413 734.597 192.572C735.305 193.731 735.659 195.072 735.659 196.596C735.659 198.098 735.305 199.44 734.597 200.62C733.91 201.779 732.966 202.691 731.764 203.356C730.562 204 729.188 204.322 727.643 204.322C726.592 204.322 725.626 204.172 724.746 203.871C723.866 203.571 723.169 203.163 722.653 202.648V199.075C722.911 199.525 723.276 199.944 723.748 200.33C724.242 200.716 724.81 201.017 725.454 201.232C726.098 201.446 726.774 201.553 727.482 201.553C728.362 201.553 729.145 201.35 729.832 200.942C730.54 200.534 731.088 199.965 731.474 199.236C731.882 198.484 732.086 197.605 732.086 196.596ZM738.729 189.192H742.142V204H738.729V189.192ZM747.582 189.192H751.831L745.457 195.308L752.475 204H748.258L741.176 195.308L747.582 189.192ZM752.736 189.192H762.104V192.25H752.736V189.192ZM755.73 189.836H759.143V204H755.73V189.836ZM764.941 197.401V195.019H774.245C774.159 194.31 773.966 193.699 773.665 193.184C773.386 192.647 772.989 192.239 772.474 191.96C771.959 191.66 771.326 191.51 770.575 191.51C769.802 191.51 769.105 191.681 768.482 192.025C767.86 192.347 767.366 192.829 767.002 193.473C766.637 194.096 766.454 194.836 766.454 195.695L766.39 196.596C766.39 197.69 766.562 198.603 766.905 199.332C767.27 200.04 767.763 200.577 768.386 200.942C769.03 201.285 769.77 201.457 770.607 201.457C771.294 201.457 771.895 201.36 772.41 201.167C772.946 200.974 773.418 200.706 773.826 200.362C774.234 199.997 774.577 199.579 774.856 199.107L777.85 200.33C777.357 201.124 776.788 201.822 776.144 202.423C775.522 203.024 774.749 203.496 773.826 203.839C772.925 204.161 771.798 204.322 770.446 204.322C768.922 204.322 767.592 203.989 766.454 203.324C765.317 202.659 764.437 201.747 763.815 200.588C763.192 199.407 762.881 198.077 762.881 196.596C762.881 196.317 762.892 196.049 762.913 195.791C762.935 195.534 762.967 195.276 763.01 195.019C763.224 193.795 763.654 192.722 764.297 191.799C764.963 190.877 765.832 190.158 766.905 189.642C767.978 189.127 769.212 188.87 770.607 188.87C772.131 188.87 773.44 189.181 774.534 189.803C775.65 190.404 776.509 191.274 777.11 192.411C777.711 193.527 778.011 194.868 778.011 196.435C778.011 196.564 778.011 196.714 778.011 196.886C778.011 197.036 777.99 197.208 777.947 197.401H764.941ZM784.741 211.082H781.232V189.192H784.741V211.082ZM797.006 196.596C797.006 198.227 796.674 199.633 796.008 200.813C795.343 201.972 794.463 202.863 793.369 203.485C792.274 204.086 791.083 204.386 789.795 204.386C788.529 204.386 787.424 204.075 786.48 203.453C785.557 202.809 784.838 201.908 784.323 200.749C783.829 199.568 783.582 198.184 783.582 196.596C783.582 194.986 783.829 193.602 784.323 192.443C784.838 191.284 785.557 190.394 786.48 189.771C787.424 189.127 788.529 188.806 789.795 188.806C791.083 188.806 792.274 189.117 793.369 189.739C794.463 190.34 795.343 191.22 796.008 192.379C796.674 193.538 797.006 194.943 797.006 196.596ZM793.401 196.596C793.401 195.609 793.197 194.772 792.789 194.085C792.381 193.377 791.834 192.851 791.147 192.508C790.482 192.143 789.742 191.96 788.926 191.96C788.261 191.96 787.606 192.143 786.962 192.508C786.319 192.851 785.782 193.366 785.353 194.053C784.945 194.74 784.741 195.587 784.741 196.596C784.741 197.605 784.945 198.452 785.353 199.139C785.782 199.826 786.319 200.352 786.962 200.716C787.606 201.06 788.261 201.232 788.926 201.232C789.742 201.232 790.482 201.06 791.147 200.716C791.834 200.352 792.381 199.826 792.789 199.139C793.197 198.431 793.401 197.583 793.401 196.596ZM810.452 190.286C810.452 189.664 810.666 189.138 811.096 188.709C811.546 188.258 812.083 188.033 812.705 188.033C813.371 188.033 813.918 188.258 814.347 188.709C814.776 189.138 814.991 189.664 814.991 190.286C814.991 190.887 814.776 191.413 814.347 191.864C813.918 192.314 813.371 192.54 812.705 192.54C812.083 192.54 811.546 192.314 811.096 191.864C810.666 191.413 810.452 190.887 810.452 190.286ZM827.308 184.975V181.466H843.017V184.975H837.062V204H833.231V184.975H827.308ZM844.475 199.622C844.475 200.073 844.593 200.448 844.83 200.749C845.087 201.049 845.42 201.285 845.828 201.457C846.235 201.607 846.697 201.682 847.212 201.682C847.963 201.682 848.639 201.564 849.24 201.328C849.841 201.092 850.313 200.716 850.656 200.201C851 199.686 851.171 199 851.171 198.141L851.686 199.815C851.686 200.759 851.44 201.575 850.946 202.262C850.452 202.927 849.787 203.442 848.95 203.807C848.113 204.15 847.18 204.322 846.149 204.322C845.184 204.322 844.304 204.15 843.51 203.807C842.737 203.463 842.115 202.959 841.643 202.294C841.192 201.607 840.967 200.759 840.967 199.751C840.967 198.742 841.224 197.873 841.739 197.143C842.254 196.413 842.984 195.855 843.928 195.469C844.894 195.083 846.021 194.89 847.308 194.89C848.167 194.89 848.929 194.997 849.594 195.212C850.281 195.426 850.849 195.673 851.3 195.952C851.751 196.231 852.062 196.478 852.234 196.692V198.527C851.568 198.034 850.892 197.68 850.206 197.465C849.519 197.229 848.725 197.111 847.823 197.111C847.094 197.111 846.471 197.218 845.956 197.433C845.463 197.626 845.087 197.916 844.83 198.302C844.593 198.667 844.475 199.107 844.475 199.622ZM843.703 193.087L842.319 190.608C842.984 190.2 843.832 189.803 844.862 189.417C845.892 189.031 847.072 188.838 848.403 188.838C849.626 188.838 850.699 189.02 851.622 189.385C852.545 189.75 853.264 190.276 853.779 190.962C854.315 191.628 854.584 192.454 854.584 193.441V204H851.171V193.827C851.171 193.141 850.882 192.615 850.302 192.25C849.744 191.864 849.057 191.671 848.242 191.671C847.534 191.671 846.879 191.756 846.278 191.928C845.677 192.1 845.151 192.304 844.701 192.54C844.272 192.754 843.939 192.937 843.703 193.087ZM870.254 186.649V189.482H862.432V194.149H867.775V196.789H862.432V204H859.019V196.789H856.637V194.149H859.019V186.649H870.254ZM875.378 199.622C875.378 200.073 875.496 200.448 875.732 200.749C875.99 201.049 876.323 201.285 876.73 201.457C877.138 201.607 877.599 201.682 878.115 201.682C878.866 201.682 879.542 201.564 880.143 201.328C880.744 201.092 881.216 200.716 881.559 200.201C881.902 199.686 882.074 199 882.074 198.141L882.589 199.815C882.589 200.759 882.342 201.575 881.849 202.262C881.355 202.927 880.69 203.442 879.853 203.807C879.016 204.15 878.082 204.322 877.052 204.322C876.086 204.322 875.207 204.15 874.413 203.807C873.64 203.463 873.018 202.959 872.545 202.294C872.095 201.607 871.869 200.759 871.869 199.751C871.869 198.742 872.127 197.873 872.642 197.143C873.157 196.413 873.887 195.855 874.831 195.469C875.797 195.083 876.923 194.89 878.211 194.89C879.07 194.89 879.831 194.997 880.497 195.212C881.183 195.426 881.752 195.673 882.203 195.952C882.654 196.231 882.965 196.478 883.136 196.692V198.527C882.471 198.034 881.795 197.68 881.108 197.465C880.422 197.229 879.628 197.111 878.726 197.111C877.997 197.111 877.374 197.218 876.859 197.433C876.365 197.626 875.99 197.916 875.732 198.302C875.496 198.667 875.378 199.107 875.378 199.622ZM874.606 193.087L873.221 190.608C873.887 190.2 874.734 189.803 875.765 189.417C876.795 189.031 877.975 188.838 879.306 188.838C880.529 188.838 881.602 189.02 882.525 189.385C883.448 189.75 884.167 190.276 884.682 190.962C885.218 191.628 885.486 192.454 885.486 193.441V204H882.074V193.827C882.074 193.141 881.784 192.615 881.205 192.25C880.647 191.864 879.96 191.671 879.145 191.671C878.436 191.671 877.782 191.756 877.181 191.928C876.58 192.1 876.054 192.304 875.604 192.54C875.174 192.754 874.842 192.937 874.606 193.087ZM903.668 204L901.415 192.894L903.249 188.065L907.37 204H903.668ZM896.425 200.974L903.249 188.065L903.571 193.763L897.391 204.998L896.425 200.974ZM897.391 204.998L891.274 193.763L891.596 188.065L898.356 200.974L897.391 204.998ZM887.508 204L891.596 188.065L893.463 192.894L891.21 204H887.508ZM918.314 194.182L914.29 203.034L910.684 202.648L918.314 188.065L925.943 202.648L922.338 203.034L918.314 194.182ZM924.43 204H912.358V206.897H908.817V201.038H927.81V206.897H924.43V204ZM933.663 199.622C933.663 200.073 933.781 200.448 934.017 200.749C934.275 201.049 934.607 201.285 935.015 201.457C935.423 201.607 935.884 201.682 936.399 201.682C937.15 201.682 937.826 201.564 938.427 201.328C939.028 201.092 939.5 200.716 939.844 200.201C940.187 199.686 940.359 199 940.359 198.141L940.874 199.815C940.874 200.759 940.627 201.575 940.133 202.262C939.64 202.927 938.974 203.442 938.138 203.807C937.301 204.15 936.367 204.322 935.337 204.322C934.371 204.322 933.491 204.15 932.697 203.807C931.925 203.463 931.302 202.959 930.83 202.294C930.379 201.607 930.154 200.759 930.154 199.751C930.154 198.742 930.411 197.873 930.927 197.143C931.442 196.413 932.171 195.855 933.116 195.469C934.081 195.083 935.208 194.89 936.496 194.89C937.354 194.89 938.116 194.997 938.781 195.212C939.468 195.426 940.037 195.673 940.488 195.952C940.938 196.231 941.249 196.478 941.421 196.692V198.527C940.756 198.034 940.08 197.68 939.393 197.465C938.706 197.229 937.912 197.111 937.011 197.111C936.281 197.111 935.659 197.218 935.144 197.433C934.65 197.626 934.275 197.916 934.017 198.302C933.781 198.667 933.663 199.107 933.663 199.622ZM932.89 193.087L931.506 190.608C932.171 190.2 933.019 189.803 934.049 189.417C935.079 189.031 936.26 188.838 937.59 188.838C938.814 188.838 939.887 189.02 940.809 189.385C941.732 189.75 942.451 190.276 942.966 190.962C943.503 191.628 943.771 192.454 943.771 193.441V204H940.359V193.827C940.359 193.141 940.069 192.615 939.49 192.25C938.932 191.864 938.245 191.671 937.429 191.671C936.721 191.671 936.067 191.756 935.466 191.928C934.865 192.1 934.339 192.304 933.888 192.54C933.459 192.754 933.126 192.937 932.89 193.087ZM951.233 211.082H947.724V189.192H951.233V211.082ZM963.498 196.596C963.498 198.227 963.165 199.633 962.5 200.813C961.835 201.972 960.955 202.863 959.86 203.485C958.766 204.086 957.575 204.386 956.287 204.386C955.021 204.386 953.915 204.075 952.971 203.453C952.048 202.809 951.329 201.908 950.814 200.749C950.321 199.568 950.074 198.184 950.074 196.596C950.074 194.986 950.321 193.602 950.814 192.443C951.329 191.284 952.048 190.394 952.971 189.771C953.915 189.127 955.021 188.806 956.287 188.806C957.575 188.806 958.766 189.117 959.86 189.739C960.955 190.34 961.835 191.22 962.5 192.379C963.165 193.538 963.498 194.943 963.498 196.596ZM959.892 196.596C959.892 195.609 959.688 194.772 959.281 194.085C958.873 193.377 958.326 192.851 957.639 192.508C956.974 192.143 956.233 191.96 955.418 191.96C954.752 191.96 954.098 192.143 953.454 192.508C952.81 192.851 952.274 193.366 951.844 194.053C951.437 194.74 951.233 195.587 951.233 196.596C951.233 197.605 951.437 198.452 951.844 199.139C952.274 199.826 952.81 200.352 953.454 200.716C954.098 201.06 954.752 201.232 955.418 201.232C956.233 201.232 956.974 201.06 957.639 200.716C958.326 200.352 958.873 199.826 959.281 199.139C959.688 198.431 959.892 197.583 959.892 196.596Z" fill="white"/>
<circle cx="1022.95" cy="313.582" r="13.2644" fill="white"/>
<path d="M298.882 318.39V348.07H244V169H298.882L358.24 235.654L416.437 169H472.148V348.07H417.764V318.39H330.053L327.068 309.271L402.841 299.654L416.437 248.089H308.498L302.032 229.187C302.032 229.187 301.109 226.56 299.876 225.374C297.883 223.456 293.078 223.384 293.078 223.384H273.016C269.866 223.384 268.582 226.367 268.705 229.187C268.821 231.855 270.031 234.493 273.016 234.493H293.078L318.115 318.39H298.882Z" fill="white"/>
<circle cx="385.5" cy="336.5" r="11.5" fill="white"/>
<circle cx="330.5" cy="336.5" r="11.5" fill="white"/>
<path d="M499.877 288.815C499.877 280.489 501.583 273.115 504.994 266.695C508.505 260.275 513.22 255.309 519.139 251.798C525.158 248.186 531.779 246.381 539.002 246.381C545.522 246.381 551.19 247.685 556.005 250.293C560.921 252.801 564.833 255.961 567.743 259.773V247.735H585.048V330.648H567.743V318.309C564.833 322.221 560.871 325.482 555.855 328.09C550.839 330.698 545.121 332.002 538.701 332.002C531.578 332.002 525.057 330.197 519.139 326.585C513.22 322.873 508.505 317.757 504.994 311.236C501.583 304.615 499.877 297.142 499.877 288.815ZM567.743 289.116C567.743 283.398 566.539 278.432 564.131 274.219C561.824 270.006 558.764 266.795 554.952 264.588C551.14 262.381 547.027 261.278 542.613 261.278C538.199 261.278 534.086 262.381 530.274 264.588C526.462 266.695 523.352 269.855 520.944 274.068C518.637 278.182 517.483 283.097 517.483 288.815C517.483 294.533 518.637 299.549 520.944 303.863C523.352 308.177 526.462 311.487 530.274 313.794C534.186 316.001 538.299 317.105 542.613 317.105C547.027 317.105 551.14 316.001 554.952 313.794C558.764 311.587 561.824 308.377 564.131 304.164C566.539 299.85 567.743 294.834 567.743 289.116ZM624.734 259.773C627.242 255.56 630.552 252.299 634.665 249.992C638.879 247.584 643.844 246.381 649.562 246.381V264.137H645.199C638.477 264.137 633.361 265.842 629.85 269.253C626.439 272.664 624.734 278.583 624.734 287.01V330.648H607.579V247.735H624.734V259.773ZM698.135 289.267L736.356 330.648H713.183L682.485 294.985V330.648H665.331V219.295H682.485V284L712.581 247.735H736.356L698.135 289.267ZM824.643 287.16C824.643 290.27 824.442 293.079 824.041 295.587H760.69C761.192 302.208 763.649 307.525 768.063 311.537C772.477 315.55 777.894 317.556 784.315 317.556C793.544 317.556 800.065 313.694 803.877 305.97H822.386C819.878 313.594 815.313 319.864 808.692 324.779C802.172 329.595 794.046 332.002 784.315 332.002C776.39 332.002 769.267 330.247 762.947 326.736C756.727 323.124 751.812 318.108 748.2 311.688C744.689 305.167 742.934 297.643 742.934 289.116C742.934 280.589 744.639 273.115 748.05 266.695C751.561 260.174 756.426 255.158 762.646 251.647C768.966 248.136 776.189 246.381 784.315 246.381C792.14 246.381 799.112 248.086 805.231 251.497C811.351 254.908 816.116 259.723 819.527 265.943C822.937 272.062 824.643 279.135 824.643 287.16ZM806.736 281.743C806.636 275.423 804.379 270.357 799.965 266.545C795.551 262.733 790.083 260.826 783.562 260.826C777.644 260.826 772.578 262.733 768.364 266.545C764.151 270.256 761.643 275.322 760.84 281.743H806.736ZM861.538 261.729V307.625C861.538 310.735 862.24 312.992 863.645 314.396C865.149 315.701 867.657 316.353 871.168 316.353H881.702V330.648H868.159C860.434 330.648 854.516 328.842 850.403 325.231C846.29 321.619 844.233 315.751 844.233 307.625V261.729H834.452V247.735H844.233V227.12H861.538V247.735H881.702V261.729H861.538ZM891.794 288.815C891.794 280.489 893.5 273.115 896.911 266.695C900.422 260.275 905.137 255.309 911.056 251.798C917.075 248.186 923.696 246.381 930.919 246.381C937.439 246.381 943.107 247.685 947.922 250.293C952.838 252.801 956.75 255.961 959.66 259.773V247.735H976.965V330.648H959.66V318.309C956.75 322.221 952.788 325.482 947.772 328.09C942.756 330.698 937.038 332.002 930.618 332.002C923.495 332.002 916.974 330.197 911.056 326.585C905.137 322.873 900.422 317.757 896.911 311.236C893.5 304.615 891.794 297.142 891.794 288.815ZM959.66 289.116C959.66 283.398 958.456 278.432 956.048 274.219C953.741 270.006 950.681 266.795 946.869 264.588C943.057 262.381 938.944 261.278 934.53 261.278C930.116 261.278 926.003 262.381 922.191 264.588C918.379 266.695 915.269 269.855 912.861 274.068C910.554 278.182 909.4 283.097 909.4 288.815C909.4 294.533 910.554 299.549 912.861 303.863C915.269 308.177 918.379 311.487 922.191 313.794C926.103 316.001 930.216 317.105 934.53 317.105C938.944 317.105 943.057 316.001 946.869 313.794C950.681 311.587 953.741 308.377 956.048 304.164C958.456 299.85 959.66 294.834 959.66 289.116Z" fill="white"/>
<g opacity="0.58">
<path d="M442.969 571.053V670H260V73H442.969L640.864 295.217L834.889 73H1020.62V670H839.311V571.053H546.892L536.942 540.65L789.561 508.589L834.889 336.675H475.031L453.472 273.658C453.472 273.658 450.396 264.898 446.286 260.944C439.64 254.551 423.622 254.311 423.622 254.311H356.736C346.233 254.311 341.956 264.255 342.364 273.658C342.75 282.551 346.786 291.347 356.736 291.347H423.622L507.092 571.053H442.969Z" fill="white" fill-opacity="0.16"/>
<circle cx="565.133" cy="636.833" r="33.1667" fill="white" fill-opacity="0.1"/>
<circle cx="728.755" cy="636.833" r="33.1667" fill="white" fill-opacity="0.1"/>
</g>
</g>
<defs>
<radialGradient id="paint0_radial_53_11" cx="0" cy="0" r="1" gradientUnits="userSpaceOnUse" gradientTransform="translate(640 -114.5) rotate(90) scale(914.5 1397.15)">
<stop stop-color="#FF8080"/>
<stop offset="0.45" stop-color="#FD3434"/>
<stop offset="1" stop-color="#CC2020"/>
</radialGradient>
<clipPath id="clip0_53_11">
<rect width="1280" height="800" fill="white"/>
</clipPath>
</defs>
</svg>
